<svg id="Layer_1" data-name="Layer 1" xmlns="http://www.w3.org/2000/svg" xmlns:xlink="http://www.w3.org/1999/xlink" width="300" height="142" viewBox="0 0 300 142"><defs><style>.cls-1{fill:none;}.cls-2{clip-path:url(#clip-path);}.cls-3{fill:#363545;}.cls-4{fill:#005f9e;}.cls-5{fill:#fff;}</style><clipPath id="clip-path"><rect class="cls-1" x="84.67" y="8" width="130.66" height="126"/></clipPath></defs><g class="cls-2"><polygon class="cls-3" points="96.33 83.97 96.33 62.11 88.34 62.11 88.34 58.04 108.7 58.04 108.7 62.11 100.71 62.11 100.71 83.97 96.33 83.97"/><g class="cls-2"><path class="cls-3" d="M106.82,74.68c0-7.07,5-9.66,8.87-9.66,4.16,0,8.16,2.48,8.16,10v1H111.13c.18,3.36,2.24,4.83,5,4.83a6.79,6.79,0,0,0,5.22-2.17L123.6,81a10,10,0,0,1-7.81,3.36c-4.66,0-9-2.83-9-9.67m13.07-1.82c-.25-2.83-1.65-4.34-4.24-4.34-2.1,0-4,1.19-4.45,4.34Z"/><polygon class="cls-3" points="126.93 83.97 126.93 58.04 131.24 58.04 131.24 73.49 138.28 65.37 143.01 65.37 136.95 72.16 143.54 83.97 139.02 83.97 134.22 75.35 131.24 78.61 131.24 83.97 126.93 83.97"/><rect class="cls-3" x="145.9" y="58.04" width="4.34" height="25.92"/><path class="cls-3" d="M153.17,79.48c0-4,3.43-6.72,12.12-7.7v-.56c0-1.86-1-2.67-3-2.67A10.1,10.1,0,0,0,156,71.08l-2.1-2.7a13.3,13.3,0,0,1,9-3.36c5,0,6.7,2.38,6.7,6.72v7.67a12.93,12.93,0,0,0,.52,4.56h-4.34a6.62,6.62,0,0,1-.42-2.38,9,9,0,0,1-6.87,2.66c-3,0-5.25-1.68-5.25-4.77m12.12-.7v-4.1c-5.15.71-7.89,2-7.89,4,0,1.47,1,2.24,2.6,2.24a7.43,7.43,0,0,0,5.29-2.14"/><path class="cls-3" d="M172.32,81.06a2.93,2.93,0,1,1,2.94,3,2.94,2.94,0,0,1-2.94-3m5.47,0a2.54,2.54,0,1,0-2.53,2.57,2.53,2.53,0,0,0,2.53-2.57m-3.62-1.69h1.14c.73,0,1.15.33,1.15.91a.81.81,0,0,1-.71.89l.8,1.47h-.48l-.77-1.41h-.68v1.41h-.45Zm1.11,1.48c.46,0,.74-.14.74-.55s-.28-.52-.75-.52h-.65v1.07Z"/><polygon class="cls-4" points="93.89 8 111.7 18.28 108.96 28.5 121.94 28.5 127.43 8 93.89 8"/><polygon class="cls-4" points="107.36 20.08 89.66 9.86 84.67 28.5 105.1 28.5 107.36 20.08"/><polygon class="cls-4" points="87.4 32.23 104.28 32.23 102.06 40.69 87.4 32.23"/><polygon class="cls-4" points="95.34 124.95 89.55 117.75 97.16 108.27 94.2 105.88 84.67 117.75 94.12 129.5 95.34 124.95"/><polygon class="cls-4" points="204.66 110.44 210.45 117.64 202.84 127.12 205.8 129.5 215.33 117.64 205.88 105.88 204.66 110.44"/><polygon class="cls-4" points="193.21 134 97.16 134 105.9 101.39 201.95 101.39 193.21 134"/></g><path class="cls-5" d="M119.61,117.31c0-5.14,1.74-7.35,4.38-7.35s4.38,2.21,4.38,7.35-1.77,7.32-4.38,7.32S119.61,122.44,119.61,117.31Zm6.62,0c0-3.61-.69-5.41-2.24-5.41s-2.25,1.8-2.25,5.41.7,5.46,2.25,5.46S126.23,120.91,126.23,117.31Z"/><path class="cls-5" d="M129.69,114.21h2v1.12a2.62,2.62,0,0,1,2.21-1.28c1.65,0,2.75,1.45,2.75,5.27s-1.2,5.27-2.87,5.27a2.36,2.36,0,0,1-2.09-1.24v5h-2Zm4.92,5.13c0-2.58-.49-3.47-1.42-3.47a2.19,2.19,0,0,0-1.49.95v5.08a2.15,2.15,0,0,0,1.51,1C134.12,122.87,134.61,122,134.61,119.34Z"/><path class="cls-5" d="M137.5,119.34c0-3.68,1.47-5.29,3.5-5.29,2.37,0,3.28,2.27,3.28,5.31v.72h-4.83c0,1.82.55,2.87,1.63,2.87.89,0,1.26-.57,1.61-1.61l1.59.52c-.53,1.8-1.63,2.77-3.26,2.77C138.91,124.63,137.5,123,137.5,119.34Zm4.88-.79c0-1.83-.47-2.79-1.4-2.79s-1.43.69-1.51,2.79Z"/><path class="cls-5" d="M145.46,114.21h2v1.2a3.61,3.61,0,0,1,2.63-1.36c1.28,0,2,.62,2,2.58v7.85h-2v-7.33c0-.83-.21-1.24-.83-1.24a3,3,0,0,0-1.76,1v7.6h-2Z"/><path class="cls-5" d="M158.41,124.48h-1.86l3.25-14.4h2.08l3.25,14.4h-2.07l-.74-3.61h-3.18Zm3.14-7.37c-.29-1.47-.55-2.52-.78-4.4h-.06c-.23,1.9-.48,2.89-.77,4.36l-.45,2.14H162Z"/><path class="cls-5" d="M166.18,110.14h3.37c2.17,0,4,1,4,4.38,0,3.72-2,4.53-4.13,4.53h-1.2v5.43h-2.09Zm3.39,7.15c1.3,0,1.94-.74,1.94-2.72s-.62-2.59-2-2.59h-1.28v5.31Z"/><path class="cls-5" d="M174.76,110.14h2.14v14.34h-2.14Z"/></g></svg>